<?xml version="1.0" encoding="utf-8"?>
<!-- Generator: Adobe Illustrator 23.1.1, SVG Export Plug-In . SVG Version: 6.00 Build 0)  -->
<svg version="1.1" id="Layer_1" xmlns="http://www.w3.org/2000/svg" xmlns:xlink="http://www.w3.org/1999/xlink" x="0px" y="0px"
	 viewBox="0 0 400 400" style="enable-background:new 0 0 400 400;" xml:space="preserve">
<style type="text/css">
	.st0{fill:#00B7E8;}
	.st1{fill:#FFFFFF;}
</style>
<rect x="23.1" y="141.3" class="st0" width="118" height="118"/>
<rect x="141.1" y="141.3" class="st1" width="118" height="118"/>
<rect x="23.1" y="259.3" class="st0" width="118" height="118"/>
<rect x="141.1" y="23.3" transform="matrix(6.123234e-17 -1 1 6.123234e-17 117.8542 282.4236)" class="st0" width="118" height="118"/>
<rect x="141.1" y="259.3" transform="matrix(-1.836970e-16 1 -1 -1.836970e-16 518.4236 118.1458)" class="st0" width="118" height="118"/>
<rect x="259.1" y="141.3" class="st0" width="118" height="118"/>
<path class="st0" d="M377.1,141.3h-118v-118h61.3c31.3,0,56.7,25.4,56.7,56.7V141.3z"/>
<path class="st0" d="M259.1,377.3v-118h118v61.3c0,31.3-25.4,56.7-56.7,56.7H259.1z"/>
</svg>
